HIERARCHY
ROOT Hips
{
	OFFSET 0.000000 0.000000 0.000000
	CHANNELS 6 Xposition Yposition Zposition Xrotation Yrotation Zrotation
	JOINT LeftUpLeg_virtual
	{
		OFFSET 0.000000 0.000000 0.000000
		CHANNELS 3 Xrotation Yrotation Zrotation
		JOINT LeftUpLeg
		{
			OFFSET 11.394100 -6.187798 -0.413800
			CHANNELS 3 Xrotation Yrotation Zrotation
			JOINT LeftLeg
			{
				OFFSET 0.430247 -32.302673 3.732800
				CHANNELS 3 Xrotation Yrotation Zrotation
				JOINT LeftFoot
				{
					OFFSET -0.430247 -48.264931 -6.423300
					CHANNELS 3 Xrotation Yrotation Zrotation
					JOINT LeftToeBase
					{
						OFFSET 4.230900 -16.068199 23.438400
						CHANNELS 3 Xrotation Yrotation Zrotation
						JOINT LeftToe_End
						{
							OFFSET 4.510700 0.695400 19.974600
							CHANNELS 3 Xrotation Yrotation Zrotation
							End Site
							{
								OFFSET 0 0 0
							}
						}
					}
				}
			}
		}
	}
	JOINT RightUpLeg_virtual
	{
		OFFSET 0.000000 0.000000 0.000000
		CHANNELS 3 Xrotation Yrotation Zrotation
		JOINT RightUpLeg
		{
			OFFSET -11.333700 -6.187798 -0.413800
			CHANNELS 3 Xrotation Yrotation Zrotation
			JOINT RightLeg
			{
				OFFSET -0.430392 -32.302628 3.733000
				CHANNELS 3 Xrotation Yrotation Zrotation
				JOINT RightFoot
				{
					OFFSET 0.430392 -48.264973 -6.423500
					CHANNELS 3 Xrotation Yrotation Zrotation
					JOINT RightToeBase
					{
						OFFSET -4.230900 -16.068199 23.438400
						CHANNELS 3 Xrotation Yrotation Zrotation
						JOINT RightToe_End
						{
							OFFSET -4.510700 0.695400 19.974600
							CHANNELS 3 Xrotation Yrotation Zrotation
							End Site
							{
								OFFSET 0 0 0
							}
						}
					}
				}
			}
		}
	}
	JOINT Spine_virtual
	{
		OFFSET 0.000000 0.000000 0.000000
		CHANNELS 3 Xrotation Yrotation Zrotation
		JOINT Spine
		{
			OFFSET -0.002400 12.777504 0.315300
			CHANNELS 3 Xrotation Yrotation Zrotation
			JOINT Spine1
			{
				OFFSET -0.002067 5.816869 0.032633
				CHANNELS 3 Xrotation Yrotation Zrotation
				JOINT Spine1_split
				{
					OFFSET -0.002067 5.816869 0.032633
					CHANNELS 3 Xrotation Yrotation Zrotation
					JOINT Spine2
					{
						OFFSET -0.002067 5.816869 0.032633
						CHANNELS 3 Xrotation Yrotation Zrotation
						JOINT Neck_virtual
						{
							OFFSET 0.000000 0.000000 0.000000
							CHANNELS 3 Xrotation Yrotation Zrotation
							JOINT Neck
							{
								OFFSET -0.003700 21.199493 -0.826900
								CHANNELS 3 Xrotation Yrotation Zrotation
								JOINT Head
								{
									OFFSET 0.000000 20.442200 4.834800
									CHANNELS 3 Xrotation Yrotation Zrotation
									JOINT HeadTop_End
									{
										OFFSET 0.000000 34.668396 4.968400
										CHANNELS 3 Xrotation Yrotation Zrotation
										End Site
										{
											OFFSET 0 0 0
										}
									}
								}
							}
						}
						JOINT LeftShoulder_virtual
						{
							OFFSET 0.000000 0.000000 0.000000
							CHANNELS 3 Xrotation Yrotation Zrotation
							JOINT LeftShoulder
							{
								OFFSET 3.288150 8.794197 -1.372250
								CHANNELS 3 Xrotation Yrotation Zrotation
								JOINT LeftShoulder_split
								{
									OFFSET 3.288150 8.794197 -1.372250
									CHANNELS 3 Xrotation Yrotation Zrotation
									JOINT LeftArm
									{
										OFFSET 11.953299 -2.279007 -0.146200
										CHANNELS 3 Xrotation Yrotation Zrotation
										JOINT LeftForeArm
										{
											OFFSET 18.448900 0.000000 0.000000
											CHANNELS 3 Xrotation Yrotation Zrotation
											JOINT LeftHand
											{
												OFFSET 29.527798 0.000000 0.000000
												CHANNELS 3 Xrotation Yrotation Zrotation
												End Site
												{
													OFFSET 0 0 0
												}
											}
										}
									}
								}
							}
						}
						JOINT RightShoulder_virtual
						{
							OFFSET 0.000000 0.000000 0.000000
							CHANNELS 3 Xrotation Yrotation Zrotation
							JOINT RightShoulder
							{
								OFFSET -3.249400 8.794197 -1.372250
								CHANNELS 3 Xrotation Yrotation Zrotation
								JOINT RightShoulder_split
								{
									OFFSET -3.249400 8.794197 -1.372250
									CHANNELS 3 Xrotation Yrotation Zrotation
									JOINT RightArm
									{
										OFFSET -11.953299 -2.279007 -0.146200
										CHANNELS 3 Xrotation Yrotation Zrotation
										JOINT RightForeArm
										{
											OFFSET -18.448900 0.000000 0.000000
											CHANNELS 3 Xrotation Yrotation Zrotation
											JOINT RightHand
											{
												OFFSET -29.527802 0.000000 0.000000
												CHANNELS 3 Xrotation Yrotation Zrotation
												End Site
												{
													OFFSET 0 0 0
												}
											}
										}
									}
								}
							}
						}
					}
				}
			}
		}
	}
}
MOTION
Frames: 4
Frame Time: 0.03333333
2.520790 91.808212 -17.382160 0.000000 0.000000 0.000000 -5.144465 -8.383466 13.855114 -39.284482 -15.488868 -2.468419 26.977159 8.411934 3.062187 11.944813 -4.425625 6.182743 7.583742 -1.916155 8.902230 0.000000 0.000000 0.000000 -8.306704 -5.906398 13.897377 -25.251826 -29.252078 -29.034062 47.335359 -10.494483 -0.686629 -15.690657 -20.665403 20.041324 19.397660 5.513999 -64.485469 0.000000 0.000000 0.000000 -8.104143 -9.026845 12.679031 27.793582 -5.144204 4.621275 2.088939 6.413167 6.022465 0.203181 0.107233 0.146129 0.000000 0.000000 0.000000 8.457114 8.306675 4.845383 -0.678420 7.925924 18.037201 27.876838 -10.885504 -25.440691 0.000000 0.000000 0.000000 6.571154 7.464845 3.901675 -5.660387 -35.580662 -9.182391 11.149878 -2.031544 7.393290 -12.997185 31.058462 -88.327221 31.974718 -20.416798 21.726273 0.000000 0.000000 0.000000 7.295878 7.689157 5.444716 6.294671 -9.718598 -2.132018 -13.812712 8.076651 -16.230717 -21.965550 14.480606 54.534191 20.610111 -2.366931 -1.245155 0.000000 0.000000 0.000000 
1.910029 92.463181 -16.587643 0.000000 0.000000 0.000000 -5.922413 -5.199283 14.092430 -39.352323 -11.767719 -3.531325 23.830030 8.694243 2.299975 12.673045 -5.847037 6.435731 5.988178 -2.147347 10.148904 0.000000 0.000000 0.000000 -8.225960 -3.382694 14.819721 -18.579443 -29.199902 -24.935443 47.953423 -10.627872 -0.718262 -17.513085 -20.106547 15.624746 15.076857 8.713678 -64.567657 0.000000 0.000000 0.000000 -9.905834 -5.077349 13.190040 25.519929 -5.539133 4.245599 1.709590 6.665368 6.413124 -0.383184 0.779841 0.100726 0.000000 0.000000 0.000000 7.607402 8.562899 4.739800 0.312435 6.623862 18.668690 26.384997 -10.819302 -25.390014 0.000000 0.000000 0.000000 5.965016 7.584133 4.463319 -4.543021 -34.149955 -6.079114 16.467144 -2.573497 6.730864 -20.078217 31.627088 -84.368177 32.514323 -24.123159 22.339565 0.000000 0.000000 0.000000 7.317749 7.776355 5.431918 5.875047 -8.908331 -1.009423 -14.610869 11.449093 -11.155301 -22.053395 11.942688 57.106324 19.865207 -1.788510 -0.695518 0.000000 0.000000 0.000000 
1.439803 93.490143 -15.765339 0.000000 0.000000 0.000000 -7.680718 1.633135 14.996018 -38.821928 -7.560657 -5.467023 20.010269 7.259586 0.973251 16.921078 -10.322402 6.504255 3.404625 -2.937383 13.781049 0.000000 0.000000 0.000000 -8.974239 3.575898 16.102227 -7.587459 -25.937029 -18.095700 47.683381 -9.200445 -1.674164 -13.900908 -18.235975 14.371807 2.478689 15.422711 -58.814213 0.000000 0.000000 0.000000 -11.969651 3.165070 14.370704 21.744954 -6.074033 3.052796 0.990396 6.803422 7.039194 -0.503471 1.224577 0.091730 0.000000 0.000000 0.000000 6.504898 8.915280 5.303151 0.656542 5.772267 18.621491 23.541519 -11.252434 -24.250834 0.000000 0.000000 0.000000 4.591020 7.898391 5.798067 -2.758619 -29.915597 -0.892966 20.930959 -1.934431 1.935608 -27.798440 29.052879 -77.884271 33.101054 -27.588790 23.160567 0.000000 0.000000 0.000000 6.414848 7.811492 5.856869 5.929263 -6.770588 0.937225 -15.456715 11.988421 -6.775709 -21.982581 11.073499 57.492591 18.101782 -2.455039 0.144581 0.000000 0.000000 0.000000 
1.007043 94.542648 -14.488106 0.000000 0.000000 0.000000 -9.784035 10.524806 16.192493 -38.195692 -3.691591 -7.702532 17.498634 5.207223 -0.778317 24.509775 -15.762448 8.307261 1.476222 -4.015378 18.199585 0.000000 0.000000 0.000000 -10.650651 13.521459 17.475659 3.304727 -19.629393 -11.632324 45.885692 -6.075109 -3.283646 -6.240712 -15.250880 15.145777 -15.433717 19.820656 -45.516500 0.000000 0.000000 0.000000 -14.085317 13.218607 15.861127 17.442305 -6.450979 1.662910 -0.028819 6.813679 7.447702 -0.362713 1.306470 -0.028347 0.000000 0.000000 0.000000 5.141442 9.205547 6.093035 0.112213 5.395052 18.336292 19.743483 -12.074728 -22.088791 0.000000 0.000000 0.000000 2.758378 8.307257 7.126795 -1.347567 -23.537652 4.813685 23.703099 -0.371831 -5.125645 -34.231375 24.043601 -70.001960 31.950153 -28.053981 22.768463 0.000000 0.000000 0.000000 4.773717 7.742348 6.222535 6.249298 -3.610887 2.979987 -15.794044 10.688041 -3.272947 -21.423061 11.903894 55.110341 15.736734 -5.040362 0.987718 0.000000 0.000000 0.000000 
